<svg xmlns="http://www.w3.org/2000/svg" viewBox="0 0 4096 4096"><defs><style>.cls-1{fill:#fff;}.cls-2{fill:#171717;}</style></defs><g id="Livello_2" data-name="Livello 2"><g id="Livello_1-2" data-name="Livello 1"><rect class="cls-1" width="4096" height="4096"/><path class="cls-2" d="M3100.83,1907,2643,2364.78c-74.16,74.16-199,73.39-273.17,0-13.45-13.44-27.51-26.11-42-38.32-.31-.15-.62-.46-.93-.62-.31-.31-.77-.62-1.08-.93a662.82,662.82,0,0,0-98.58-57.63c-.31-.15-.77-.31-1.08-.46-.46-.31-1.08-.46-1.54-.77A647.35,647.35,0,0,0,2111.49,2235c-.61,0-1.08-.16-1.7-.16-.61-.15-1.23-.15-1.85-.3a660.52,660.52,0,0,0-118.66,0c-.62.15-1.24.15-1.86.3a5.05,5.05,0,0,0-1.54.16,673.77,673.77,0,0,0-88.85,22.56q76.48,74.63,152.81,149.41,78.12,76.48,156.37,152.81c-34-29.82-297.9,248-262,283.07,2.47,2.31,4.94,4.79,7.57,7.1,2.16,1.86,4.48,3.87,6.8,5.72a2.63,2.63,0,0,1,.93.93,150.84,150.84,0,0,1-17.77-15.14q-30.36-29.91-60.88-59.49Q1750.09,2654,1619.22,2526.09l-165-161.31c-74.47-72.78-73.54-200.25,0-273.18,63.82-63,138.91-119.28,220.34-157.91,75.24-35.54,152.34-63.5,234.85-75.4,50.53-7.26,100.75-13.75,151.89-12.67,50.52.93,101.36,7.73,151,16.53,81.73,14.22,161.46,45.28,234.54,83.59,14.84,7.73,29.52,16.23,43.88,25.19q94.34-94.34,188.66-188.81a1291.42,1291.42,0,0,0-202.56-112.8s-3.87-1.78-5.87-2.62a1307.38,1307.38,0,0,0-269.32-73.24c-2.15-.31-4-.52-6-.77a1320.3,1320.3,0,0,0-293.26-.16l-6.65.93a1313.63,1313.63,0,0,0-269.31,73.39l-5.56,2.32a1279.13,1279.13,0,0,0-243.2,141.69l-3.25,2.47A1277.12,1277.12,0,0,0,1269.56,1907c-37.08,36.93-85.29,54.24-136.59,56.55-51.45,2.32-99.81-22.71-136.58-56.55-35.54-32.6-56.55-89.15-56.55-136.59,0-49.29,21.47-101.66,56.55-136.58,115.42-114.81,251.23-214,398.48-284.15,135.35-64.59,276.89-111.87,425.68-132.73,84.36-11.89,168.42-20.39,253.71-18.69,84.21,1.7,168.72,11.74,251.7,26.42,291.4,51.3,565.82,201.17,774.87,409.15C3174.84,1707.64,3174.38,1833.41,3100.83,1907Z"/><path class="cls-2" d="M2272,2705a175.1,175.1,0,0,1-1.54,23.95c-.31,3.56-.93,6.95-1.55,10.51-.46,2.78-1.08,5.41-1.7,8.19a192.3,192.3,0,0,1-58.4,100.12c-.93.93-1.86,1.7-2.78,2.47-3.71,3.25-7.58,6.34-11.59,9.43a166.7,166.7,0,0,1-16.38,10.81,189.37,189.37,0,0,1-81.58,26.73c-2.48.16-5,.47-7.57.47-3.25.15-6.49.31-9.89.31s-6.49-.16-9.74-.16c-3.24-.31-6.49-.46-9.73-.77h-.16c-6.33-.62-12.51-1.55-18.69-2.78-.16-.16-.31-.16-.62-.16a195.47,195.47,0,0,1-26.73-7.72c-.31,0-.46,0-.62-.16a169.3,169.3,0,0,1-23.48-10.5c-6.34-3.25-12.52-7-18.24-10.66-1.54-1.09-3.09-2.17-4.48-3.25a14,14,0,0,1-1.85-1.39c-1.08-.62-2-1.39-3.09-2.16a20,20,0,0,0-2.16-1.7,2.63,2.63,0,0,0-.93-.93c-2.32-1.85-4.64-3.86-6.8-5.72-2.63-2.31-5.1-4.79-7.57-7.1a193.17,193.17,0,0,1,27-297.9,179.43,179.43,0,0,1,24.26-13.91,190.45,190.45,0,0,1,29.66-11.43,193.59,193.59,0,0,1,181.09,40.33c2.94,2.93,5.72,5.71,8.65,8.49,2.17,2.17,4.33,4.33,6.34,6.49,2.16,2.48,4.32,5,6.49,7.57.15,0,.15.16.31.31a153.06,153.06,0,0,1,11.12,15.15A189.88,189.88,0,0,1,2272,2705Z"/></g></g></svg>